<svg width="50" height="50" viewBox="0 0 50 50" fill="none" xmlns="http://www.w3.org/2000/svg">
<circle cx="25" cy="25" r="25" fill="#E8E8E8"/>
<rect x="8" y="15" width="35" height="21" rx="3" stroke="white" stroke-width="2"/>
<mask id="path-3-inside-1_977_2287" fill="white">
<path fill-rule="evenodd" clip-rule="evenodd" d="M11 21.736V29.2645C13.1042 29.7474 14.7617 31.6211 15.1889 34H36.885C37.2364 32.0434 38.42 30.4285 40 29.6482V21.3524C38.4199 20.572 37.2362 18.9568 36.8849 17H15.189C14.7619 19.3791 13.1044 21.2531 11 21.736Z"/>
</mask>
<path d="M11 21.736L10.5527 19.7867L9 20.143V21.736H11ZM11 29.2645H9V30.8575L10.5527 31.2138L11 29.2645ZM15.1889 34L13.2204 34.3535L13.5161 36H15.1889V34ZM36.885 34V36H38.5578L38.8535 34.3535L36.885 34ZM40 29.6482L40.8857 31.4414L42 30.891V29.6482H40ZM40 21.3524H42V20.1095L40.8857 19.5592L40 21.3524ZM36.8849 17L38.8535 16.6466L38.5579 15H36.8849V17ZM15.189 17V15H13.516L13.2204 16.6466L15.189 17ZM9 21.736V29.2645H13V21.736H9ZM10.5527 31.2138C11.7633 31.4916 12.9132 32.6429 13.2204 34.3535L17.1574 33.6465C16.6102 30.5994 14.4452 28.0031 11.4473 27.3152L10.5527 31.2138ZM15.1889 36H36.885V32H15.1889V36ZM38.8535 34.3535C39.1038 32.9597 39.9285 31.9141 40.8857 31.4414L39.1143 27.8549C36.9116 28.9429 35.369 31.1271 34.9165 33.6465L38.8535 34.3535ZM42 29.6482V21.3524H38V29.6482H42ZM40.8857 19.5592C39.9284 19.0864 39.1037 18.0406 38.8535 16.6466L34.9164 17.3534C35.3687 19.8731 36.9114 22.0576 39.1143 23.1456L40.8857 19.5592ZM36.8849 15H15.189V19H36.8849V15ZM13.2204 16.6466C12.9133 18.3575 11.7634 19.5089 10.5527 19.7867L11.4473 23.6854C14.4454 22.9974 16.6105 20.4008 17.1575 17.3534L13.2204 16.6466Z" fill="white" fill-opacity="0.75" mask="url(#path-3-inside-1_977_2287)"/>
<ellipse cx="25" cy="25.5" rx="5" ry="5.5" fill="white"/>
<path d="M24.3731 28.8653C23.5233 28.7489 22.8152 28.445 22.2487 27.9537C22.0829 27.805 22 27.6659 22 27.5366C22 27.3879 22.1036 27.2166 22.3109 27.0226C22.5181 26.8416 22.7185 26.7511 22.9119 26.7511C23.0501 26.7511 23.1883 26.806 23.3264 26.9159C23.6857 27.2328 24.0415 27.4494 24.3938 27.5657L24.4145 25.7716L23.8549 25.5873C23.3506 25.4256 22.9603 25.1994 22.6839 24.9084C22.4076 24.611 22.2694 24.2748 22.2694 23.8998C22.2694 23.3567 22.4491 22.9138 22.8083 22.5711C23.1744 22.2284 23.6891 22.0151 24.3523 21.931L24.342 21.4849C24.3351 21.3297 24.4007 21.2101 24.5389 21.1261C24.6839 21.042 24.867 21 25.0881 21C25.323 21 25.4991 21.0259 25.6166 21.0776C25.734 21.1293 25.7962 21.2328 25.8031 21.3879L25.8238 21.9698C26.4387 22.0862 26.9983 22.3254 27.5026 22.6875C27.6684 22.8039 27.7513 22.93 27.7513 23.0657C27.7513 23.195 27.6753 23.3405 27.5233 23.5022C27.3368 23.7091 27.1399 23.8125 26.9326 23.8125C26.7807 23.8125 26.6356 23.764 26.4974 23.667C26.2763 23.4989 26.0622 23.3761 25.8549 23.2985L25.8756 24.8502L26.4249 25.0345C26.943 25.2091 27.3333 25.4547 27.5959 25.7716C27.8653 26.0884 28 26.4601 28 26.8869C28 27.4558 27.8135 27.9084 27.4404 28.2446C27.0743 28.5808 26.5354 28.7909 25.8238 28.875L25.8031 29.6121C25.7962 29.7672 25.734 29.8707 25.6166 29.9224C25.4991 29.9741 25.323 30 25.0881 30C24.8601 30 24.677 29.958 24.5389 29.8739C24.4007 29.7899 24.3351 29.6703 24.342 29.5151L24.3731 28.8653ZM23.886 23.8028C23.886 23.9386 23.9275 24.0614 24.0104 24.1713C24.1002 24.2748 24.2314 24.3556 24.4041 24.4138L24.3938 23.2015C24.228 23.2468 24.1002 23.3211 24.0104 23.4246C23.9275 23.528 23.886 23.6541 23.886 23.8028ZM25.8549 27.5657C26.1934 27.4494 26.3627 27.236 26.3627 26.9256C26.3627 26.6282 26.1969 26.4052 25.8653 26.2565L25.8549 27.5657Z" fill="#E8E8E8"/>
</svg>
