<svg width="49" height="49" viewBox="0 0 49 49" fill="none" xmlns="http://www.w3.org/2000/svg">
<path d="M16.3819 19.6765H32.4589L31.2264 35.0042C31.1658 35.7573 30.5316 36.3379 29.7695 36.3379H19.0714C18.3092 36.3379 17.675 35.7573 17.6144 35.0042L16.3819 19.6765Z" fill="#989898"/>
<path fill-rule="evenodd" clip-rule="evenodd" d="M22.2281 13.3379C21.1182 13.3379 20.2185 14.2298 20.2185 15.33H16.3819C15.5748 15.33 14.9204 15.9787 14.9204 16.7788V18.2277H33.9204V16.7788C33.9204 15.9787 33.2661 15.33 32.4589 15.33H28.6223C28.6223 14.2298 27.7226 13.3379 26.6127 13.3379H22.2281ZM27.5262 15.33C27.5262 14.8299 27.1172 14.4245 26.6127 14.4245H22.2281C21.7236 14.4245 21.3146 14.8299 21.3146 15.33H27.5262Z" fill="#989898"/>
</svg>
