<svg width="19" height="20" viewBox="0 0 19 20" fill="none" xmlns="http://www.w3.org/2000/svg">
<path fill-rule="evenodd" clip-rule="evenodd" d="M2.94145 1.18204C2.70198 0.94224 2.38124 0.80955 2.04832 0.81255C1.7154 0.815549 1.39694 0.953997 1.16152 1.19808C0.926105 1.44215 0.792569 1.77233 0.789676 2.1175C0.786783 2.46266 0.914765 2.7952 1.14606 3.04348L7.86673 10.0114L1.14606 16.9793C1.02478 17.1007 0.928053 17.246 0.861508 17.4066C0.794963 17.5672 0.759936 17.7399 0.758471 17.9147C0.757006 18.0895 0.789132 18.2629 0.852975 18.4247C0.916818 18.5864 1.0111 18.7334 1.13032 18.857C1.24954 18.9806 1.3913 19.0784 1.54735 19.1446C1.70339 19.2108 1.87059 19.2441 2.03918 19.2426C2.20778 19.241 2.37439 19.2047 2.5293 19.1357C2.68422 19.0667 2.82432 18.9664 2.94145 18.8407L9.66213 11.8728L16.3828 18.8407C16.6223 19.0805 16.943 19.2132 17.2759 19.2102C17.6088 19.2072 17.9273 19.0688 18.1627 18.8247C18.3981 18.5806 18.5317 18.2504 18.5346 17.9053C18.5375 17.5601 18.4095 17.2276 18.1782 16.9793L11.4575 10.0114L18.1782 3.04348C18.4095 2.7952 18.5375 2.46266 18.5346 2.1175C18.5317 1.77233 18.3981 1.44215 18.1627 1.19808C17.9273 0.953997 17.6088 0.815549 17.2759 0.81255C16.943 0.80955 16.6223 0.94224 16.3828 1.18204L9.66213 8.14994L2.94145 1.18204Z" fill="#989898"/>
</svg>
