<svg width="20" height="24" viewBox="0 0 20 24" fill="none" xmlns="http://www.w3.org/2000/svg">
<path d="M2.38183 6.67647H18.4587L17.2262 22.0042C17.1657 22.7573 16.5315 23.3379 15.7693 23.3379H5.07125C4.3091 23.3379 3.67489 22.7573 3.61433 22.0042L2.38183 6.67647Z" fill="white"/>
<path fill-rule="evenodd" clip-rule="evenodd" d="M8.22798 0.337891C7.1181 0.337891 6.21836 1.2298 6.21836 2.33002H2.38183C1.57464 2.33002 0.920288 2.97868 0.920288 3.77884V5.22765H19.9203V3.77884C19.9203 2.97868 19.2659 2.33002 18.4587 2.33002H14.6222C14.6222 1.2298 13.7225 0.337891 12.6126 0.337891H8.22798ZM13.5261 2.33002C13.5261 1.82992 13.1171 1.4245 12.6126 1.4245H8.22798C7.72349 1.4245 7.31452 1.82992 7.31452 2.33002H13.5261Z" fill="white"/>
</svg>
