<svg width="41" height="40" viewBox="0 0 41 40" fill="none" xmlns="http://www.w3.org/2000/svg">
<rect x="0.663086" width="40" height="40" rx="20" fill="#A8A8A8"/>
<path fill-rule="evenodd" clip-rule="evenodd" d="M15.8146 13.5758C15.8146 12.2899 16.3255 11.0567 17.2347 10.1474C18.144 9.23812 19.3772 8.72729 20.6631 8.72729C21.949 8.72729 23.1822 9.23812 24.0915 10.1474C25.0008 11.0567 25.5116 12.2899 25.5116 13.5758C25.5116 14.8617 25.0008 16.0949 24.0915 17.0042C23.1822 17.9134 21.949 18.4243 20.6631 18.4243C19.3772 18.4243 18.144 17.9134 17.2347 17.0042C16.3255 16.0949 15.8146 14.8617 15.8146 13.5758ZM15.8146 20.8485C14.2073 20.8485 12.6657 21.487 11.5291 22.6236C10.3926 23.7602 9.75403 25.3017 9.75403 26.9091C9.75403 27.8735 10.1371 28.7985 10.8191 29.4804C11.501 30.1624 12.426 30.5455 13.3904 30.5455H27.9358C28.9003 30.5455 29.8252 30.1624 30.5071 29.4804C31.1891 28.7985 31.5722 27.8735 31.5722 26.9091C31.5722 25.3017 30.9337 23.7602 29.7971 22.6236C28.6605 21.487 27.119 20.8485 25.5116 20.8485H15.8146Z" fill="white"/>
</svg>
