<svg width="19" height="19" viewBox="0 0 19 19" fill="none" xmlns="http://www.w3.org/2000/svg">
<path d="M17.1796 18.5L10.8796 12.2C10.3796 12.6 9.80459 12.9167 9.15459 13.15C8.50459 13.3833 7.81292 13.5 7.07959 13.5C5.26292 13.5 3.72559 12.8707 2.46759 11.612C1.20959 10.3533 0.580257 8.816 0.57959 7C0.578924 5.184 1.20826 3.64667 2.46759 2.388C3.72692 1.12933 5.26426 0.5 7.07959 0.5C8.89492 0.5 10.4326 1.12933 11.6926 2.388C12.9526 3.64667 13.5816 5.184 13.5796 7C13.5796 7.73333 13.4629 8.425 13.2296 9.075C12.9963 9.725 12.6796 10.3 12.2796 10.8L18.5796 17.1L17.1796 18.5ZM7.07959 11.5C8.32959 11.5 9.39226 11.0627 10.2676 10.188C11.1429 9.31333 11.5803 8.25067 11.5796 7C11.5789 5.74933 11.1416 4.687 10.2676 3.813C9.39359 2.939 8.33092 2.50133 7.07959 2.5C5.82826 2.49867 4.76592 2.93633 3.89259 3.813C3.01926 4.68967 2.58159 5.752 2.57959 7C2.57759 8.248 3.01526 9.31067 3.89259 10.188C4.76992 11.0653 5.83226 11.5027 7.07959 11.5Z" fill="white"/>
</svg>
