<svg width="27" height="24" viewBox="0 0 27 24" fill="none" xmlns="http://www.w3.org/2000/svg">
<path d="M9.91308 2.23256C11.6317 -0.744188 15.9283 -0.744184 17.6469 2.23256L26.3474 17.3023C28.066 20.2791 25.9178 24 22.4805 24H5.07944C1.64219 24 -0.506083 20.2791 1.21254 17.3023L9.91308 2.23256Z" fill="white"/>
<path d="M15.3157 7.61099L15.0992 15.5692H13.068L12.846 7.61099H15.3157ZM14.0836 19.121C13.7173 19.121 13.4029 18.9915 13.1402 18.7326C12.8775 18.4699 12.748 18.1554 12.7517 17.7891C12.748 17.4265 12.8775 17.1158 13.1402 16.8568C13.4029 16.5978 13.7173 16.4683 14.0836 16.4683C14.4351 16.4683 14.744 16.5978 15.0104 16.8568C15.2768 17.1158 15.4118 17.4265 15.4155 17.7891C15.4118 18.0333 15.3471 18.2571 15.2213 18.4606C15.0992 18.6604 14.9383 18.8214 14.7385 18.9434C14.5387 19.0618 14.3204 19.121 14.0836 19.121Z" fill="#C3C3C3"/>
</svg>
