<svg width="93" height="93" viewBox="0 0 93 93" fill="none" xmlns="http://www.w3.org/2000/svg">
<circle cx="46.5" cy="46.5" r="46.5" fill="#E8E8E8"/>
<path d="M59.687 40.9447C57.9432 48.2512 52.6146 53.5679 46.3118 53.5679C40.009 53.5679 34.6804 48.2512 32.9366 40.9447C32.8281 40.955 32.7185 40.9602 32.6078 40.9602C30.3373 40.9602 28.4966 38.7514 28.4966 36.0268C28.4966 33.3022 30.3373 31.0934 32.6078 31.0934C32.6774 31.0934 32.7466 31.0954 32.8153 31.0995C34.4208 23.5171 39.8551 17.9375 46.3118 17.9375C52.7685 17.9375 58.2028 23.5171 59.8083 31.0995C59.877 31.0954 59.9462 31.0934 60.0158 31.0934C62.2863 31.0934 64.127 33.3022 64.127 36.0268C64.127 38.7514 62.2863 40.9602 60.0158 40.9602C59.9051 40.9602 59.7955 40.955 59.687 40.9447Z" stroke="white" stroke-width="2" stroke-linejoin="round"/>
<path d="M40.0079 51.9238C40.2819 54.1165 40.1723 58.8855 37.5411 60.4203C34.2522 62.3389 26.852 63.7093 24.6594 65.0797C22.9053 66.176 20.8222 70.2872 20 72.2058" stroke="white" stroke-width="2" stroke-linecap="round" stroke-linejoin="round"/>
<path d="M52.9921 51.9238C52.7181 54.1165 52.8277 58.8855 55.4589 60.4203C58.7478 62.3389 66.148 63.7093 68.3406 65.0797C70.0947 66.176 72.1778 70.2872 73 72.2058" stroke="white" stroke-width="2" stroke-linecap="round" stroke-linejoin="round"/>
<path d="M38.9116 60.6943C40.282 61.6079 43.7902 63.4351 46.8599 63.4351C49.9296 63.4351 53.4379 61.6079 54.8083 60.6943" stroke="white" stroke-width="2" stroke-linecap="round" stroke-linejoin="round"/>
<path d="M59.7417 31.0939C58.4583 31.0939 53.0718 26.1387 50.6035 23.3516C50.2513 23.7103 49.1788 24.5103 46.5858 26.1604C41.762 29.2301 35.4399 30.7284 32.8818 31.0939L32.3336 30.5457C30.0496 28.7185 27.2906 23.5293 34.5263 17.3899C41.762 11.2505 50.5143 14.8318 53.986 17.3899C59.1935 17.3899 61.9343 21.5011 61.6602 26.1604C61.441 29.8879 60.2898 31.0025 59.7417 31.0939Z" fill="white" stroke="white" stroke-width="2" stroke-linecap="round" stroke-linejoin="round"/>
</svg>
