<svg width="50" height="50" viewBox="0 0 50 50" fill="none" xmlns="http://www.w3.org/2000/svg">
<circle cx="25" cy="25" r="25" fill="#9CD2EA"/>
<path d="M11.7412 16.6577L24.3784 11.9154C25.0888 11.6487 25.874 11.6613 26.5756 11.9505L38.0883 16.6957C40.6529 17.7528 40.5322 21.4256 37.9037 22.3121L26.3994 26.1917C25.8041 26.3925 25.1608 26.4013 24.5602 26.2169L11.9147 22.3343C9.17807 21.494 9.061 17.6634 11.7412 16.6577Z" stroke="white" stroke-width="2.5" stroke-linecap="round" stroke-linejoin="round"/>
<path d="M13.6916 23.4983L12.7439 32.3081C12.5997 33.648 13.3667 34.9195 14.6191 35.4171L23.8153 39.0703C24.5085 39.3457 25.2794 39.353 25.9777 39.0907L35.6105 35.4727C36.988 34.9553 37.7869 33.5154 37.4968 32.0728L35.8551 23.9085" stroke="white" stroke-width="2.5" stroke-linecap="round" stroke-linejoin="round"/>
</svg>
