<svg width="7" height="11" viewBox="0 0 7 11" fill="none" xmlns="http://www.w3.org/2000/svg">
<path d="M6.12 7.81016C6.58 8.12016 6.81 8.45516 6.81 8.81516C6.81 9.12516 6.665 9.47016 6.375 9.85016C6.055 10.2602 5.745 10.4652 5.445 10.4652C5.205 10.4652 4.92 10.3402 4.59 10.0902L0.87 7.18016C0.51 6.90016 0.275 6.63016 0.165 6.37016C0.055 6.10016 0 5.81016 0 5.50016C0 5.19016 0.055 4.90516 0.165 4.64516C0.275 4.37516 0.51 4.10016 0.87 3.82016L4.59 0.910157C4.92 0.660156 5.205 0.535156 5.445 0.535156C5.745 0.535156 6.055 0.740156 6.375 1.15016C6.665 1.53016 6.81 1.87516 6.81 2.18516C6.81 2.54516 6.58 2.88016 6.12 3.19016L2.82 5.36516V5.63516L6.12 7.81016Z" fill="#787777"/>
</svg>
