<svg width="50" height="50" viewBox="0 0 50 50" fill="none" xmlns="http://www.w3.org/2000/svg">
<circle cx="25" cy="25" r="25" fill="#A5E09C"/>
<path d="M12.25 13.7498C13.6667 13.2498 17.05 12.3998 19.25 12.9998C22 13.7498 24.25 14.7499 24.75 14.9999C25.25 15.2499 27.25 12.9998 31.25 12.9998C34.45 12.9998 36.5833 13.4998 37.25 13.7498" stroke="white" stroke-opacity="0.7" stroke-width="2.5" stroke-linecap="round" stroke-linejoin="round"/>
<path d="M15.7503 32.6614C18.805 32.4704 23.228 34.491 25.0576 35.5252V26.5758V17.6265C24.819 16.9901 23.6257 15.5263 20.7619 14.7627C17.8981 13.999 12.7274 15.0809 10.5 15.7173V33.616C10.9773 33.3773 12.6956 32.8523 15.7503 32.6614Z" fill="#A5E09C" stroke="white" stroke-width="2.5" stroke-linejoin="round"/>
<path d="M34.1262 32.6614C31.0715 32.4704 26.6485 34.491 24.8189 35.5252V26.5758V17.6265C25.0575 16.9901 26.2508 15.5263 29.1145 14.7627C31.9783 13.999 37.1491 15.0809 39.3765 15.7173V33.616C38.8992 33.3773 37.1809 32.8523 34.1262 32.6614Z" fill="#A5E09C" stroke="white" stroke-width="2.5" stroke-linejoin="round"/>
</svg>
