<svg width="57" height="56" viewBox="0 0 57 56" fill="none" xmlns="http://www.w3.org/2000/svg">
<path d="M22.1053 40.8558C22.1056 40.8555 22.1059 40.8553 22.1062 40.8551L22.5234 40.5541C23.0089 40.1936 23.5048 39.847 24.0103 39.5147L24.0179 39.5096L24.018 39.5097C25.2851 38.6932 26.5991 38.0972 28.3368 38.0972H28.4024C31.657 38.0972 34.1078 38.0959 35.9991 37.8951C37.9016 37.6913 39.2462 37.2829 40.2792 36.4637C40.791 36.0574 41.1776 35.673 41.4674 35.2444L41.4684 35.243C41.7594 34.8141 41.9527 34.3414 42.0809 33.7583C42.3311 32.6177 42.3368 31.0425 42.3368 28.5253V28.2719C42.3368 25.708 42.3336 23.7757 42.0815 22.2837C41.8251 20.7702 41.3112 19.703 40.2787 18.8834L40.2786 18.8833C39.2461 18.0634 37.902 17.6562 35.9989 17.4537L35.9984 17.4537C34.1076 17.2516 31.6571 17.2502 28.4024 17.2502H28.2712C25.0168 17.2502 22.5661 17.2516 20.6748 17.4523C18.7725 17.6561 17.4278 18.0644 16.3948 18.8834C15.3624 19.703 14.8485 20.7702 14.5921 22.2821L22.1053 40.8558ZM22.1053 40.8558C21.4489 41.3274 20.7605 41.8068 19.9917 42.2429L19.9907 42.2435C19.9832 42.2477 19.9742 42.2503 19.9646 42.2502C19.955 42.2502 19.9459 42.2477 19.9385 42.2434C19.9311 42.2392 19.926 42.2336 19.9227 42.2281C19.9196 42.2227 19.9182 42.2171 19.9182 42.2119C19.9182 42.2119 19.9182 42.2118 19.9182 42.2118L19.9182 38.6319V37.8237L19.1279 37.6542C18.0039 37.4131 17.1215 37.0412 16.395 36.4642L16.3939 36.4633C15.8826 36.0584 15.4964 35.6739 15.2044 35.2438C14.9141 34.8143 14.7207 34.3408 14.5925 33.7578C14.3425 32.6172 14.3368 31.0422 14.3368 28.5253V28.2719C14.3368 25.7083 14.34 23.7759 14.5921 22.2824L22.1053 40.8558Z" stroke="#A8A8A8" stroke-width="2"/>
<circle cx="40.9999" cy="17" r="8" fill="#FF5238"/>
</svg>
