<svg width="93" height="93" viewBox="0 0 93 93" fill="none" xmlns="http://www.w3.org/2000/svg">
<circle cx="46.3391" cy="46.3391" r="46.3391" fill="#E8E8E8"/>
<path d="M59.687 40.6517C57.9432 47.9582 52.6146 53.275 46.3118 53.275C40.009 53.275 34.6804 47.9582 32.9366 40.6517C32.8281 40.6621 32.7185 40.6673 32.6078 40.6673C30.3373 40.6673 28.4966 38.4584 28.4966 35.7338C28.4966 33.0092 30.3373 30.8004 32.6078 30.8004C32.6774 30.8004 32.7466 30.8024 32.8153 30.8065C34.4208 23.2241 39.8551 17.6445 46.3118 17.6445C52.7685 17.6445 58.2028 23.2241 59.8083 30.8065C59.877 30.8024 59.9462 30.8004 60.0158 30.8004C62.2863 30.8004 64.127 33.0092 64.127 35.7338C64.127 38.4584 62.2863 40.6673 60.0158 40.6673C59.9051 40.6673 59.7955 40.6621 59.687 40.6517Z" stroke="white" stroke-width="2" stroke-linejoin="round"/>
<path d="M40.0079 51.6309C40.2819 53.8235 40.1723 58.5925 37.5411 60.1273C34.2522 62.0459 26.852 63.4163 24.6594 64.7867C22.9053 65.883 20.8222 69.9942 20 71.9128" stroke="white" stroke-width="2" stroke-linecap="round" stroke-linejoin="round"/>
<path d="M52.9921 51.6309C52.7181 53.8235 52.8277 58.5925 55.4589 60.1273C58.7478 62.0459 66.148 63.4163 68.3406 64.7867C70.0947 65.883 72.1778 69.9942 73 71.9128" stroke="white" stroke-width="2" stroke-linecap="round" stroke-linejoin="round"/>
<path d="M30.415 62.32V40.3936L32.8818 40.9417C33.6126 42.8603 35.4033 47.1359 36.7189 48.89C38.0345 50.6442 39.277 51.6308 39.7338 51.9049V54.6457C39.7338 56.0161 38.3634 58.4828 37.267 59.8533C36.39 60.9496 32.3336 61.9545 30.415 62.32Z" fill="white" stroke="white" stroke-width="2" stroke-linecap="round" stroke-linejoin="round"/>
<path d="M62.4824 61.4971V40.667L60.0157 41.1877C59.2848 43.0104 57.4942 47.0722 56.1786 48.7387C54.863 50.4051 53.6205 51.3424 53.1637 51.6028V54.2066C53.1637 55.5084 54.5341 57.8518 55.6304 59.1537C56.5075 60.1952 60.5639 61.1499 62.4824 61.4971Z" fill="white" stroke="white" stroke-width="2" stroke-linecap="round"/>
<path fill-rule="evenodd" clip-rule="evenodd" d="M46.774 31.122C41.4557 36.1904 34.2523 37.0051 30.6849 32.9417C30.2461 32.4419 29.8827 31.8915 29.5928 31.3012C30.5294 22.6905 37.5445 16 46.0595 16C54.4532 16 61.3894 22.5014 62.4824 30.9345C62.21 31.8101 61.7757 32.6109 61.1721 33.2984C58.1636 36.7252 52.0889 36.0381 47.6039 31.7638C47.3511 31.5229 47.1087 31.2757 46.877 31.0231C46.8428 31.0561 46.8085 31.0891 46.774 31.122Z" fill="white"/>
<path d="M38.3633 60.127C39.7337 61.0406 43.2419 62.8678 46.3116 62.8678C49.3813 62.8678 52.8895 61.0406 54.2599 60.127" stroke="white" stroke-width="2" stroke-linecap="round" stroke-linejoin="round"/>
</svg>
