<svg width="21" height="17" viewBox="0 0 21 17" fill="none" xmlns="http://www.w3.org/2000/svg">
<path d="M11.633 1.06964C11.9009 0.80182 12.2642 0.651367 12.643 0.651367C13.0219 0.651367 13.3852 0.80182 13.6531 1.06964L20.0817 7.49831C20.3495 7.76621 20.5 8.12951 20.5 8.50833C20.5 8.88714 20.3495 9.25044 20.0817 9.51834L13.6531 15.947C13.3836 16.2072 13.0228 16.3512 12.6482 16.348C12.2736 16.3447 11.9153 16.1945 11.6504 15.9296C11.3856 15.6647 11.2353 15.3064 11.2321 14.9319C11.2288 14.5573 11.3728 14.1964 11.633 13.927L15.5002 9.93692H1.92859C1.54971 9.93692 1.18634 9.78641 0.918425 9.51849C0.650512 9.25058 0.5 8.88721 0.5 8.50833C0.5 8.12944 0.650512 7.76607 0.918425 7.49816C1.18634 7.23024 1.54971 7.07973 1.92859 7.07973H15.5002L11.633 3.08967C11.3652 2.82177 11.2148 2.45847 11.2148 2.07966C11.2148 1.70084 11.3652 1.33754 11.633 1.06964Z" fill="#FF5238"/>
</svg>
