<svg width="41" height="41" viewBox="0 0 41 41" fill="none" xmlns="http://www.w3.org/2000/svg">
<circle cx="20.5" cy="20.5" r="20" fill="#FF5238"/>
<path d="M21.75 19.25H29.25C29.94 19.25 30.5 19.81 30.5 20.5C30.5 21.19 29.94 21.75 29.25 21.75H21.75V29.25C21.75 29.94 21.19 30.5 20.5 30.5C19.81 30.5 19.25 29.94 19.25 29.25V21.75H11.75C11.06 21.75 10.5 21.19 10.5 20.5C10.5 19.81 11.06 19.25 11.75 19.25H19.25V11.75C19.25 11.06 19.81 10.5 20.5 10.5C21.19 10.5 21.75 11.06 21.75 11.75V19.25Z" fill="white"/>
</svg>
