<svg width="163" height="131" viewBox="0 0 163 131" fill="none" xmlns="http://www.w3.org/2000/svg">
<g clip-path="url(#clip0_1845_6393)">
<path d="M124.416 10.3467C122.239 8.17524 122.239 4.664 124.416 2.51567C126.593 0.367345 130.114 0.344245 132.268 2.51567L147.092 17.2998C148.134 18.3394 148.713 19.7485 148.713 21.2269C148.713 22.7053 148.134 24.1144 147.092 25.1539L132.268 39.9381C130.091 42.1095 126.57 42.1095 124.416 39.9381C122.262 37.7667 122.239 34.2554 124.416 32.1071L129.743 26.7941L89.4416 26.7479C86.3611 26.7479 83.8827 24.2761 83.8827 21.2038C83.8827 18.1315 86.3611 15.6597 89.4416 15.6597H129.766L124.416 10.3467ZM24.82 87.9636L19.4927 93.2766H59.7944C62.8749 93.2766 65.3532 95.7484 65.3532 98.8207C65.3532 101.893 62.8749 104.365 59.7944 104.365H19.4696L24.7968 109.678C26.974 111.849 26.974 115.36 24.7968 117.509C22.6196 119.657 19.099 119.68 16.9449 117.509L2.12133 102.748C1.07905 101.708 0.5 100.299 0.5 98.8207C0.5 97.3423 1.07905 95.9332 2.12133 94.8937L16.9449 80.1095C19.1221 77.9381 22.6428 77.9381 24.7968 80.1095C26.9509 82.2809 26.974 85.7921 24.7968 87.9405L24.82 87.9636ZM22.7354 15.6597H78.764C77.907 17.3229 77.3974 19.1941 77.3974 21.2038C77.3974 27.8336 82.7941 33.2159 89.4416 33.2159H116.634C115.707 37.143 116.773 41.4165 119.83 44.4889C124.532 49.1782 132.152 49.1782 136.854 44.4889L141.324 40.0305V89.5806C141.324 97.735 134.677 104.365 126.501 104.365H70.472C71.329 102.702 71.8386 100.83 71.8386 98.8207C71.8386 92.1909 66.4419 86.8086 59.7944 86.8086H32.6024C33.5288 82.8815 32.4634 78.608 29.406 75.5356C24.7042 70.8463 17.0839 70.8463 12.382 75.5356L7.9118 79.994V30.4439C7.9118 22.2895 14.5593 15.6597 22.7354 15.6597ZM37.559 30.4439H22.7354V45.2281C30.9115 45.2281 37.559 38.5983 37.559 30.4439ZM126.501 74.7964C118.324 74.7964 111.677 81.4262 111.677 89.5806H126.501V74.7964ZM74.618 82.1885C80.5152 82.1885 86.1709 79.8521 90.3408 75.6932C94.5107 71.5344 96.8534 65.8938 96.8534 60.0122C96.8534 54.1307 94.5107 48.4901 90.3408 44.3313C86.1709 40.1724 80.5152 37.836 74.618 37.836C68.7208 37.836 63.0651 40.1724 58.8952 44.3313C54.7252 48.4901 52.3826 54.1307 52.3826 60.0122C52.3826 65.8938 54.7252 71.5344 58.8952 75.6932C63.0651 79.8521 68.7208 82.1885 74.618 82.1885Z" fill="#FF5238"/>
</g>
<defs>
<clipPath id="clip0_1845_6393">
<rect width="162" height="129.255" fill="white" transform="translate(0.5 0.872314)"/>
</clipPath>
</defs>
</svg>
