<svg width="117" height="243" viewBox="0 0 117 243" fill="none" xmlns="http://www.w3.org/2000/svg">
<mask id="path-1-inside-1_1845_6349" fill="white">
<path fill-rule="evenodd" clip-rule="evenodd" d="M44 0C84.3168 0 117 32.6832 117 73V123H81V73C81 52.5655 64.4345 36 44 36C23.5655 36 7 52.5655 7 73V180H-28.3207C-28.7686 176.731 -29 173.392 -29 170V73C-29 32.6832 3.68321 0 44 0ZM31.8891 242H32V242.018C31.963 242.012 31.926 242.006 31.8891 242Z"/>
</mask>
<path d="M117 123H120V126H117V123ZM81 123V126H78V123H81ZM7 180H10V183H7V180ZM-28.3207 180V183H-30.9378L-31.293 180.407L-28.3207 180ZM31.8891 242L31.3956 244.959L31.8891 239V242ZM32 242V239H35V242H32ZM32 242.018H35V245.556L31.5103 244.978L32 242.018ZM114 73C114 34.3401 82.6599 3 44 3V-3C85.9736 -3 120 31.0264 120 73H114ZM114 123V73H120V123H114ZM81 120H117V126H81V120ZM84 73V123H78V73H84ZM44 33C66.0914 33 84 50.9086 84 73H78C78 54.2223 62.7777 39 44 39V33ZM4 73C4 50.9086 21.9086 33 44 33V39C25.2223 39 10 54.2223 10 73H4ZM4 180V73H10V180H4ZM7 183H-28.3207V177H7V183ZM-26 170C-26 173.256 -25.7779 176.458 -25.3485 179.593L-31.293 180.407C-31.7593 177.003 -32 173.529 -32 170H-26ZM-26 73V170H-32V73H-26ZM44 3C5.34007 3 -26 34.3401 -26 73H-32C-32 31.0264 2.02636 -3 44 -3V3ZM31.8891 239H32V245H31.8891V239ZM29 242.018V242H35V242.018H29ZM32.3826 239.041C32.4186 239.047 32.4543 239.053 32.4897 239.059L31.5103 244.978C31.4717 244.972 31.4334 244.965 31.3956 244.959L32.3826 239.041Z" fill="#FF5238" mask="url(#path-1-inside-1_1845_6349)"/>
</svg>
