<svg width="164" height="213" viewBox="0 0 164 213" fill="none" xmlns="http://www.w3.org/2000/svg">
<path fill-rule="evenodd" clip-rule="evenodd" d="M-51 0C-67.5685 0 -81 13.4315 -81 30V183C-81 199.569 -67.5685 213 -51 213H133.398C149.967 213 163.398 199.569 163.398 183V30C163.398 13.4315 149.967 0 133.398 0H-51ZM70.9004 92.0737C70.9004 105.61 61.9732 117.06 49.6853 120.86V149.779H32.7132V121.108C19.9898 117.583 10.6494 105.919 10.6494 92.0737C10.6494 75.4359 24.1371 61.9482 40.7749 61.9482C57.4128 61.9482 70.9004 75.4359 70.9004 92.0737Z" fill="#FF5238"/>
</svg>
