<svg width="406" height="110" viewBox="0 0 406 110" fill="none" xmlns="http://www.w3.org/2000/svg">
<mask id="path-1-inside-1_1600_7317" fill="white">
<path d="M70.1719 36.8086C68.2676 29.1914 61.9688 24.7969 52.5938 24.7969C37.7988 24.7969 29.1562 35.9297 29.1562 54.8262C29.1562 73.8691 37.2129 85.1484 52.4473 85.1484C65.7041 85.1484 72.4424 78.9229 72.6621 69.0352H53.0332V49.1133H99.6152V63.6152C99.6152 92.4727 79.8398 109.465 52.1543 109.465C21.3926 109.465 0.445312 88.6641 0.445312 55.1191C0.445312 20.2559 23.4434 0.480469 52.0078 0.480469C76.9102 0.480469 96.0996 15.5684 98.4434 36.8086H70.1719ZM136.383 108H106.207L141.51 1.94531H179.449L214.605 108H184.576L178.277 87.1992H142.682L136.383 108ZM149.127 66.1055H171.832L160.846 30.5098H159.967L149.127 66.1055ZM225.152 108V1.94531H270.27C294 1.94531 309.527 16.8867 309.527 39.1523C309.527 61.8574 293.561 76.0664 269.391 76.0664H252.984V108H225.152ZM252.984 54.3867H263.824C274.371 54.3867 280.377 48.5273 280.377 39.1523C280.377 29.9238 274.371 24.2109 263.824 24.2109H252.984V54.3867ZM377.643 34.7578C377.057 27.5801 372.369 23.4785 362.848 23.4785C353.619 23.4785 349.518 26.9941 349.371 31.9746C349.225 37.3945 354.205 40.4707 364.02 42.5215L372.809 44.5723C395.66 49.4062 405.768 60.5391 405.914 76.7988C405.768 97.5996 389.801 109.318 362.994 109.318C335.602 109.318 317.877 97.3066 317.584 71.2324H344.244C344.684 81.0469 351.568 86.3203 362.555 86.3203C372.076 86.3203 377.203 82.3652 377.35 76.7988C377.203 71.6719 372.955 68.7422 361.09 66.1055L350.396 63.7617C331.793 59.6602 320.367 50.4316 320.367 34.0254C320.221 13.957 337.945 0.480469 362.848 0.480469C388.336 0.480469 404.303 14.1035 404.449 34.7578H377.643Z"/>
</mask>
<path d="M70.1719 36.8086C68.2676 29.1914 61.9688 24.7969 52.5938 24.7969C37.7988 24.7969 29.1562 35.9297 29.1562 54.8262C29.1562 73.8691 37.2129 85.1484 52.4473 85.1484C65.7041 85.1484 72.4424 78.9229 72.6621 69.0352H53.0332V49.1133H99.6152V63.6152C99.6152 92.4727 79.8398 109.465 52.1543 109.465C21.3926 109.465 0.445312 88.6641 0.445312 55.1191C0.445312 20.2559 23.4434 0.480469 52.0078 0.480469C76.9102 0.480469 96.0996 15.5684 98.4434 36.8086H70.1719ZM136.383 108H106.207L141.51 1.94531H179.449L214.605 108H184.576L178.277 87.1992H142.682L136.383 108ZM149.127 66.1055H171.832L160.846 30.5098H159.967L149.127 66.1055ZM225.152 108V1.94531H270.27C294 1.94531 309.527 16.8867 309.527 39.1523C309.527 61.8574 293.561 76.0664 269.391 76.0664H252.984V108H225.152ZM252.984 54.3867H263.824C274.371 54.3867 280.377 48.5273 280.377 39.1523C280.377 29.9238 274.371 24.2109 263.824 24.2109H252.984V54.3867ZM377.643 34.7578C377.057 27.5801 372.369 23.4785 362.848 23.4785C353.619 23.4785 349.518 26.9941 349.371 31.9746C349.225 37.3945 354.205 40.4707 364.02 42.5215L372.809 44.5723C395.66 49.4062 405.768 60.5391 405.914 76.7988C405.768 97.5996 389.801 109.318 362.994 109.318C335.602 109.318 317.877 97.3066 317.584 71.2324H344.244C344.684 81.0469 351.568 86.3203 362.555 86.3203C372.076 86.3203 377.203 82.3652 377.35 76.7988C377.203 71.6719 372.955 68.7422 361.09 66.1055L350.396 63.7617C331.793 59.6602 320.367 50.4316 320.367 34.0254C320.221 13.957 337.945 0.480469 362.848 0.480469C388.336 0.480469 404.303 14.1035 404.449 34.7578H377.643Z" fill="#FF5238"/>
<path d="M70.1719 36.8086L67.2614 37.5362L67.8295 39.8086H70.1719V36.8086ZM72.6621 69.0352L75.6614 69.1018L75.7295 66.0352H72.6621V69.0352ZM53.0332 69.0352H50.0332V72.0352H53.0332V69.0352ZM53.0332 49.1133V46.1133H50.0332V49.1133H53.0332ZM99.6152 49.1133H102.615V46.1133H99.6152V49.1133ZM98.4434 36.8086V39.8086H101.793L101.425 36.4796L98.4434 36.8086ZM73.0823 36.081C71.9647 31.6106 69.5107 27.9662 65.8833 25.4737C62.2888 23.0039 57.7393 21.7969 52.5938 21.7969V27.7969C56.8232 27.7969 60.1106 28.7871 62.4854 30.4189C64.8272 32.0279 66.4747 34.3894 67.2614 37.5362L73.0823 36.081ZM52.5938 21.7969C44.3653 21.7969 37.5944 24.9357 32.9607 30.8812C28.4047 36.727 26.1562 44.9694 26.1562 54.8262H32.1562C32.1562 45.7865 34.2291 39.0143 37.6931 34.5695C41.0795 30.2245 46.0273 27.7969 52.5938 27.7969V21.7969ZM26.1562 54.8262C26.1562 64.7087 28.2378 73.0214 32.6929 78.9338C37.2441 84.9736 44.0033 88.1484 52.4473 88.1484V82.1484C45.6569 82.1484 40.7706 79.6836 37.4848 75.323C34.1031 70.8351 32.1562 63.9866 32.1562 54.8262H26.1562ZM52.4473 88.1484C59.5042 88.1484 65.2738 86.4945 69.358 83.1095C73.5123 79.6664 75.5358 74.7533 75.6614 69.1018L69.6628 68.9685C69.5687 73.2047 68.1132 76.3483 65.5292 78.4899C62.8752 80.6896 58.6472 82.1484 52.4473 82.1484V88.1484ZM72.6621 66.0352H53.0332V72.0352H72.6621V66.0352ZM56.0332 69.0352V49.1133H50.0332V69.0352H56.0332ZM53.0332 52.1133H99.6152V46.1133H53.0332V52.1133ZM96.6152 49.1133V63.6152H102.615V49.1133H96.6152ZM96.6152 63.6152C96.6152 77.3258 91.9383 87.9545 84.2184 95.1698C76.4721 102.41 65.3895 106.465 52.1543 106.465V112.465C66.6046 112.465 79.2526 108.024 88.3153 99.5533C97.4045 91.0582 102.615 78.7621 102.615 63.6152H96.6152ZM52.1543 106.465C37.4686 106.465 25.3606 101.515 16.9209 92.7861C8.4743 84.0499 3.44531 71.261 3.44531 55.1191H-2.55469C-2.55469 72.5222 2.88995 86.9061 12.6074 96.9566C22.3317 107.014 36.0782 112.465 52.1543 112.465V106.465ZM3.44531 55.1191C3.44531 38.3702 8.95381 25.5127 17.6341 16.8495C26.3274 8.17333 38.4244 3.48047 52.0078 3.48047V-2.51953C37.0268 -2.51953 23.3426 2.6753 13.3957 12.6027C3.43584 22.5429 -2.55469 37.0048 -2.55469 55.1191H3.44531ZM52.0078 3.48047C75.7471 3.48047 93.3228 17.7561 95.4615 37.1376L101.425 36.4796C98.8764 13.3807 78.0733 -2.51953 52.0078 -2.51953V3.48047ZM98.4434 33.8086H70.1719V39.8086H98.4434V33.8086ZM136.383 108V111H138.609L139.254 108.869L136.383 108ZM106.207 108L103.361 107.052L102.047 111H106.207V108ZM141.51 1.94531V-1.05469H139.347L138.663 0.99781L141.51 1.94531ZM179.449 1.94531L182.297 1.00135L181.615 -1.05469H179.449V1.94531ZM214.605 108V111H218.76L217.453 107.056L214.605 108ZM184.576 108L181.705 108.869L182.35 111H184.576V108ZM178.277 87.1992L181.149 86.3298L180.503 84.1992H178.277V87.1992ZM142.682 87.1992V84.1992H140.456L139.81 86.3298L142.682 87.1992ZM149.127 66.1055L146.257 65.2315L145.077 69.1055H149.127V66.1055ZM171.832 66.1055V69.1055H175.898L174.699 65.2207L171.832 66.1055ZM160.846 30.5098L163.712 29.625L163.059 27.5098H160.846V30.5098ZM159.967 30.5098V27.5098H157.744L157.097 29.6358L159.967 30.5098ZM136.383 105H106.207V111H136.383V105ZM109.053 108.948L144.356 2.89281L138.663 0.99781L103.361 107.052L109.053 108.948ZM141.51 4.94531H179.449V-1.05469H141.51V4.94531ZM176.602 2.88927L211.758 108.944L217.453 107.056L182.297 1.00135L176.602 2.88927ZM214.605 105H184.576V111H214.605V105ZM187.447 107.131L181.149 86.3298L175.406 88.0687L181.705 108.869L187.447 107.131ZM178.277 84.1992H142.682V90.1992H178.277V84.1992ZM139.81 86.3298L133.512 107.131L139.254 108.869L145.553 88.0687L139.81 86.3298ZM149.127 69.1055H171.832V63.1055H149.127V69.1055ZM174.699 65.2207L163.712 29.625L157.979 31.3945L168.965 66.9902L174.699 65.2207ZM160.846 27.5098H159.967V33.5098H160.846V27.5098ZM157.097 29.6358L146.257 65.2315L151.997 66.9794L162.837 31.3837L157.097 29.6358ZM225.152 108H222.152V111H225.152V108ZM225.152 1.94531V-1.05469H222.152V1.94531H225.152ZM252.984 76.0664V73.0664H249.984V76.0664H252.984ZM252.984 108V111H255.984V108H252.984ZM252.984 54.3867H249.984V57.3867H252.984V54.3867ZM252.984 24.2109V21.2109H249.984V24.2109H252.984ZM228.152 108V1.94531H222.152V108H228.152ZM225.152 4.94531H270.27V-1.05469H225.152V4.94531ZM270.27 4.94531C281.501 4.94531 290.53 8.47175 296.729 14.3722C302.915 20.2604 306.527 28.7431 306.527 39.1523H312.527C312.527 27.296 308.376 17.1751 300.866 10.0263C293.368 2.88958 282.768 -1.05469 270.27 -1.05469V4.94531ZM306.527 39.1523C306.527 49.7648 302.818 58.1508 296.502 63.9063C290.155 69.6897 280.898 73.0664 269.391 73.0664V79.0664C282.054 79.0664 292.864 75.3386 300.543 68.3412C308.253 61.316 312.527 51.245 312.527 39.1523H306.527ZM269.391 73.0664H252.984V79.0664H269.391V73.0664ZM249.984 76.0664V108H255.984V76.0664H249.984ZM252.984 105H225.152V111H252.984V105ZM252.984 57.3867H263.824V51.3867H252.984V57.3867ZM263.824 57.3867C269.639 57.3867 274.587 55.7655 278.105 52.4764C281.646 49.1646 283.377 44.4981 283.377 39.1523H277.377C277.377 43.1816 276.104 46.1323 274.007 48.0939C271.885 50.0782 268.556 51.3867 263.824 51.3867V57.3867ZM283.377 39.1523C283.377 33.8641 281.636 29.2624 278.082 26.0083C274.561 22.7847 269.62 21.2109 263.824 21.2109V27.2109C268.576 27.2109 271.911 28.4936 274.03 30.4336C276.115 32.3431 277.377 35.2121 277.377 39.1523H283.377ZM263.824 21.2109H252.984V27.2109H263.824V21.2109ZM249.984 24.2109V54.3867H255.984V24.2109H249.984ZM377.643 34.7578L374.653 35.0019L374.878 37.7578H377.643V34.7578ZM349.371 31.9746L346.372 31.8864L346.372 31.8936L349.371 31.9746ZM364.02 42.5215L364.701 39.6L364.667 39.592L364.633 39.5849L364.02 42.5215ZM372.809 44.5723L372.127 47.4938L372.157 47.5009L372.188 47.5073L372.809 44.5723ZM405.914 76.7988L408.914 76.82L408.914 76.7959L408.914 76.7718L405.914 76.7988ZM317.584 71.2324V68.2324H314.55L314.584 71.2661L317.584 71.2324ZM344.244 71.2324L347.241 71.0982L347.113 68.2324H344.244V71.2324ZM377.35 76.7988L380.349 76.8777L380.351 76.7954L380.348 76.7132L377.35 76.7988ZM361.09 66.1055L361.741 63.1769L361.732 63.175L361.09 66.1055ZM350.396 63.7617L349.751 66.6914L349.754 66.6922L350.396 63.7617ZM320.367 34.0254H323.367V34.0144L323.367 34.0035L320.367 34.0254ZM404.449 34.7578V37.7578H407.471L407.449 34.7365L404.449 34.7578ZM380.633 34.5137C380.288 30.2936 378.685 26.6223 375.455 24.0719C372.299 21.5808 367.992 20.4785 362.848 20.4785V26.4785C367.225 26.4785 370.022 27.427 371.737 28.7812C373.377 30.0759 374.411 32.0443 374.653 35.0019L380.633 34.5137ZM362.848 20.4785C357.917 20.4785 353.901 21.4072 351.011 23.382C347.983 25.451 346.472 28.4841 346.372 31.8864L352.37 32.0628C352.416 30.4847 353.03 29.2697 354.396 28.3358C355.901 27.3076 358.55 26.4785 362.848 26.4785V20.4785ZM346.372 31.8936C346.267 35.7787 348.109 38.7963 351.249 40.9761C354.21 43.0305 358.391 44.4101 363.406 45.4581L364.633 39.5849C359.834 38.5821 356.618 37.3982 354.67 36.0469C352.904 34.8209 352.329 33.5904 352.37 32.0557L346.372 31.8936ZM363.338 45.443L372.127 47.4938L373.49 41.6507L364.701 39.6L363.338 45.443ZM372.188 47.5073C383.285 49.8549 390.906 53.6573 395.751 58.5186C400.524 63.3079 402.847 69.3679 402.914 76.8259L408.914 76.7718C408.835 67.97 406.031 60.3337 400.001 54.2831C394.042 48.3046 385.183 44.1236 373.429 41.6372L372.188 47.5073ZM402.914 76.7777C402.847 86.3251 399.198 93.5408 392.65 98.4603C385.988 103.465 376.014 106.318 362.994 106.318V112.318C376.78 112.318 388.194 109.312 396.254 103.257C404.427 97.1174 408.835 88.0734 408.914 76.82L402.914 76.7777ZM362.994 106.318C349.678 106.318 339.159 103.391 331.991 97.7032C324.932 92.1013 320.722 83.5037 320.584 71.1987L314.584 71.2661C314.739 85.0353 319.538 95.4807 328.262 102.403C336.878 109.24 348.918 112.318 362.994 112.318V106.318ZM317.584 74.2324H344.244V68.2324H317.584V74.2324ZM341.247 71.3666C341.499 76.9987 343.644 81.6262 347.559 84.7901C351.404 87.8977 356.618 89.3203 362.555 89.3203V83.3203C357.505 83.3203 353.783 82.1062 351.33 80.1235C348.946 78.197 347.428 75.2806 347.241 71.0982L341.247 71.3666ZM362.555 89.3203C367.683 89.3203 372 88.2621 375.149 86.1318C378.396 83.9354 380.248 80.6818 380.349 76.8777L374.351 76.7199C374.304 78.4823 373.52 79.9894 371.787 81.1621C369.955 82.401 366.948 83.3203 362.555 83.3203V89.3203ZM380.348 76.7132C380.3 75.0063 379.9 73.3571 379.008 71.8253C378.123 70.307 376.847 69.0639 375.274 68.0194C372.221 65.9915 367.729 64.5076 361.741 63.1769L360.439 69.034C366.316 70.34 369.88 71.6394 371.954 73.0172C372.945 73.6756 373.5 74.291 373.824 74.8464C374.14 75.3882 374.326 76.0279 374.351 76.8845L380.348 76.7132ZM361.732 63.175L351.039 60.8313L349.754 66.6922L360.448 69.0359L361.732 63.175ZM351.042 60.8321C342.028 58.8447 335.101 55.6836 330.46 51.3219C325.913 47.0474 323.367 41.4442 323.367 34.0254H317.367C317.367 43.0129 320.535 50.227 326.351 55.6938C332.074 61.0732 340.161 64.5772 349.751 66.6914L351.042 60.8321ZM323.367 34.0035C323.301 24.949 327.23 17.4265 334.061 12.0916C340.948 6.71234 350.91 3.48047 362.848 3.48047V-2.51953C349.883 -2.51953 338.531 0.986881 330.368 7.36296C322.147 13.7835 317.287 23.0335 317.367 34.0473L323.367 34.0035ZM362.848 3.48047C375.08 3.48047 384.705 6.74852 391.233 12.1799C397.708 17.5678 401.382 25.2804 401.449 34.7791L407.449 34.7365C407.37 23.581 402.987 14.1548 395.07 7.56767C387.206 1.02394 376.103 -2.51953 362.848 -2.51953V3.48047ZM404.449 31.7578H377.643V37.7578H404.449V31.7578Z" fill="#FF5238" mask="url(#path-1-inside-1_1600_7317)"/>
</svg>
