<svg width="96" height="91" viewBox="0 0 96 91" fill="none" xmlns="http://www.w3.org/2000/svg">
<path fill-rule="evenodd" clip-rule="evenodd" d="M39.0908 4.0592L35.0251 6.88811C34.3087 7.42974 33.5498 7.91877 32.755 8.35096C32.2197 8.62065 31.6587 8.84172 31.0794 9.01123C30.4248 9.19906 29.7462 9.29583 28.383 9.49504L23.3984 10.2179C19.4648 10.7871 17.4949 11.0774 15.9515 11.9483C14.5703 12.7167 13.4232 13.8096 12.6065 15.1187C11.6876 16.5986 11.3873 18.4656 10.7808 22.1768L10.0181 26.9011C9.80788 28.1932 9.70578 28.8421 9.5076 29.4625C9.32743 30.0128 9.09522 30.5402 8.81096 31.0449C8.48666 31.6141 8.08429 32.1435 7.26754 33.1965L4.2828 37.0499C1.92863 40.0895 0.751548 41.6092 0.295129 43.2542C-0.0983763 44.7241 -0.0983763 46.2639 0.295129 47.7338C0.745543 49.3959 1.92863 50.9213 4.2828 53.9381L7.26754 57.7915C8.08429 58.8446 8.49267 59.3739 8.81096 59.9431C9.09122 60.4516 9.32343 60.9828 9.5076 61.5369C9.70578 62.1516 9.80788 62.7948 10.0181 64.0869L10.7808 68.8112C11.3813 72.5395 11.6876 74.4007 12.6065 75.8693C13.4172 77.1784 14.5703 78.2656 15.9515 79.0397C17.513 79.9106 19.4828 80.1952 23.3984 80.7701L28.383 81.493C29.7462 81.6922 30.4308 81.7946 31.0794 81.9825C31.66 82.1494 32.2185 82.3695 32.755 82.6427C33.3555 82.9444 33.914 83.3258 35.0251 84.1056L39.0908 86.9345C42.2978 89.1658 43.9012 90.2814 45.6368 90.714C47.1863 91.0953 48.8137 91.0953 50.3632 90.714C52.1168 90.2814 53.7263 89.1658 56.9092 86.9345L60.9749 84.1056C62.086 83.3315 62.6445 82.9444 63.245 82.6427C63.7815 82.3695 64.34 82.1494 64.9206 81.9825C65.5752 81.7946 66.2538 81.6979 67.617 81.493L72.6016 80.7701C76.5352 80.2009 78.499 79.9163 80.0485 79.0397C81.4297 78.2713 82.5828 77.1784 83.3935 75.8693C84.3124 74.3894 84.6127 72.5224 85.2192 68.8112L85.9819 64.0869C86.1921 62.7948 86.2942 62.1516 86.4924 61.5312C86.6726 60.9809 86.9048 60.4516 87.189 59.9431C87.5133 59.3739 87.9157 58.8446 88.7325 57.7915L91.7172 53.9381C94.0714 50.8985 95.2485 49.3845 95.7049 47.7338C96.0984 46.2639 96.0984 44.7241 95.7049 43.2542C95.2545 41.5921 94.0714 40.0667 91.7172 37.0499L88.7325 33.1965C88.161 32.5175 87.645 31.7982 87.189 31.0449C86.9045 30.5376 86.6712 30.0058 86.4924 29.4568C86.2539 28.6185 86.0833 27.7641 85.9819 26.9011L85.2192 22.1768C84.6187 18.4485 84.3124 16.5816 83.3935 15.1187C82.5747 13.8142 81.4248 12.7244 80.0485 11.9483C78.487 11.0774 76.5172 10.7928 72.6016 10.2179L67.617 9.49504C66.7065 9.39898 65.8051 9.23724 64.9206 9.01123C64.34 8.84515 63.7787 8.62394 63.245 8.35096C62.4502 7.91877 61.6913 7.42974 60.9749 6.88811L56.9092 4.0592C53.7022 1.82794 52.0988 0.712312 50.3632 0.279721C48.8123 -0.0932402 47.1877 -0.0932402 45.6368 0.279721C43.8832 0.712312 42.2737 1.82794 39.0908 4.0592ZM71.1002 34.8528C71.4478 34.451 71.7068 33.9872 71.862 33.4889C72.0173 32.9905 72.0655 32.4678 72.0039 31.9515C71.9423 31.4352 71.7722 30.9358 71.5035 30.4829C71.2348 30.03 70.8731 29.6327 70.4396 29.3145C69.558 28.6608 68.4419 28.3592 67.329 28.474C66.2162 28.5889 65.1947 29.111 64.4822 29.9293L44.6039 53.0387L33.9741 45.2976C33.1058 44.6278 31.9958 44.3059 30.8807 44.4006C29.7656 44.4952 28.7336 44.9989 28.0046 45.8042C27.6485 46.1992 27.3795 46.6578 27.2135 47.153C27.0476 47.6482 26.988 48.1699 27.0384 48.6872C27.0888 49.2046 27.2481 49.7071 27.5069 50.1651C27.7657 50.6232 28.1187 51.0274 28.5451 51.3539L42.4779 61.6564C43.3577 62.3347 44.485 62.6556 45.6135 62.5489C46.7421 62.4423 47.7803 61.9168 48.5015 61.0872L71.0822 34.7902L71.1002 34.8528Z" fill="#FF8876"/>
</svg>
