<svg width="164" height="213" viewBox="0 0 164 213" fill="none" xmlns="http://www.w3.org/2000/svg">
<mask id="path-1-inside-1_1845_6356" fill="white">
<path fill-rule="evenodd" clip-rule="evenodd" d="M-51 0C-67.5685 0 -81 13.4315 -81 30V183C-81 199.569 -67.5685 213 -51 213H133.398C149.967 213 163.398 199.569 163.398 183V30C163.398 13.4315 149.967 0 133.398 0H-51ZM70.9004 92.0737C70.9004 105.61 61.9732 117.06 49.6853 120.86V149.779H32.7132V121.108C19.9898 117.583 10.6494 105.919 10.6494 92.0737C10.6494 75.4359 24.1371 61.9482 40.7749 61.9482C57.4128 61.9482 70.9004 75.4359 70.9004 92.0737Z"/>
</mask>
<path d="M49.6853 120.86L48.7991 117.994L46.6853 118.647V120.86H49.6853ZM49.6853 149.779V152.779H52.6853V149.779H49.6853ZM32.7132 149.779H29.7132V152.779H32.7132V149.779ZM32.7132 121.108H35.7132V118.827L33.5142 118.217L32.7132 121.108ZM-78 30C-78 15.0883 -65.9117 3 -51 3V-3C-69.2254 -3 -84 11.7746 -84 30H-78ZM-78 183V30H-84V183H-78ZM-51 210C-65.9117 210 -78 197.912 -78 183H-84C-84 201.225 -69.2254 216 -51 216V210ZM133.398 210H-51V216H133.398V210ZM160.398 183C160.398 197.912 148.31 210 133.398 210V216C151.624 216 166.398 201.225 166.398 183H160.398ZM160.398 30V183H166.398V30H160.398ZM133.398 3C148.31 3 160.398 15.0883 160.398 30H166.398C166.398 11.7746 151.624 -3 133.398 -3V3ZM-51 3H133.398V-3H-51V3ZM50.5714 123.726C64.0805 119.549 73.9004 106.962 73.9004 92.0737H67.9004C67.9004 104.257 59.8659 114.572 48.7991 117.994L50.5714 123.726ZM52.6853 149.779V120.86H46.6853V149.779H52.6853ZM32.7132 152.779H49.6853V146.779H32.7132V152.779ZM29.7132 121.108V149.779H35.7132V121.108H29.7132ZM7.64941 92.0737C7.64941 107.302 17.9231 120.124 31.9122 123.999L33.5142 118.217C22.0564 115.043 13.6494 104.536 13.6494 92.0737H7.64941ZM40.7749 58.9482C22.4802 58.9482 7.64941 73.779 7.64941 92.0737H13.6494C13.6494 77.0927 25.7939 64.9482 40.7749 64.9482V58.9482ZM73.9004 92.0737C73.9004 73.779 59.0696 58.9482 40.7749 58.9482V64.9482C55.7559 64.9482 67.9004 77.0927 67.9004 92.0737H73.9004Z" fill="#FF5238" mask="url(#path-1-inside-1_1845_6356)"/>
</svg>
