<svg width="282" height="107" viewBox="0 0 282 107" fill="none" xmlns="http://www.w3.org/2000/svg">
<mask id="path-1-inside-1_1600_7315" fill="white">
<path d="M0.177734 107V0.945312H74.1523V23.5039H28.0098V42.6934H69.4648V65.252H28.0098V107H0.177734ZM113.117 0.945312V107H85.2852V0.945312H113.117ZM127.473 107V0.945312H155.305V84.4414H198.518V107H127.473ZM210.529 107V0.945312H238.361V84.4414H281.574V107H210.529Z"/>
</mask>
<path d="M0.177734 107H-2.82227V110H0.177734V107ZM0.177734 0.945312V-2.05469H-2.82227V0.945312H0.177734ZM74.1523 0.945312H77.1523V-2.05469H74.1523V0.945312ZM74.1523 23.5039V26.5039H77.1523V23.5039H74.1523ZM28.0098 23.5039V20.5039H25.0098V23.5039H28.0098ZM28.0098 42.6934H25.0098V45.6934H28.0098V42.6934ZM69.4648 42.6934H72.4648V39.6934H69.4648V42.6934ZM69.4648 65.252V68.252H72.4648V65.252H69.4648ZM28.0098 65.252V62.252H25.0098V65.252H28.0098ZM28.0098 107V110H31.0098V107H28.0098ZM3.17773 107V0.945312H-2.82227V107H3.17773ZM0.177734 3.94531H74.1523V-2.05469H0.177734V3.94531ZM71.1523 0.945312V23.5039H77.1523V0.945312H71.1523ZM74.1523 20.5039H28.0098V26.5039H74.1523V20.5039ZM25.0098 23.5039V42.6934H31.0098V23.5039H25.0098ZM28.0098 45.6934H69.4648V39.6934H28.0098V45.6934ZM66.4648 42.6934V65.252H72.4648V42.6934H66.4648ZM69.4648 62.252H28.0098V68.252H69.4648V62.252ZM25.0098 65.252V107H31.0098V65.252H25.0098ZM28.0098 104H0.177734V110H28.0098V104ZM113.117 0.945312H116.117V-2.05469H113.117V0.945312ZM113.117 107V110H116.117V107H113.117ZM85.2852 107H82.2852V110H85.2852V107ZM85.2852 0.945312V-2.05469H82.2852V0.945312H85.2852ZM110.117 0.945312V107H116.117V0.945312H110.117ZM113.117 104H85.2852V110H113.117V104ZM88.2852 107V0.945312H82.2852V107H88.2852ZM85.2852 3.94531H113.117V-2.05469H85.2852V3.94531ZM127.473 107H124.473V110H127.473V107ZM127.473 0.945312V-2.05469H124.473V0.945312H127.473ZM155.305 0.945312H158.305V-2.05469H155.305V0.945312ZM155.305 84.4414H152.305V87.4414H155.305V84.4414ZM198.518 84.4414H201.518V81.4414H198.518V84.4414ZM198.518 107V110H201.518V107H198.518ZM130.473 107V0.945312H124.473V107H130.473ZM127.473 3.94531H155.305V-2.05469H127.473V3.94531ZM152.305 0.945312V84.4414H158.305V0.945312H152.305ZM155.305 87.4414H198.518V81.4414H155.305V87.4414ZM195.518 84.4414V107H201.518V84.4414H195.518ZM198.518 104H127.473V110H198.518V104ZM210.529 107H207.529V110H210.529V107ZM210.529 0.945312V-2.05469H207.529V0.945312H210.529ZM238.361 0.945312H241.361V-2.05469H238.361V0.945312ZM238.361 84.4414H235.361V87.4414H238.361V84.4414ZM281.574 84.4414H284.574V81.4414H281.574V84.4414ZM281.574 107V110H284.574V107H281.574ZM213.529 107V0.945312H207.529V107H213.529ZM210.529 3.94531H238.361V-2.05469H210.529V3.94531ZM235.361 0.945312V84.4414H241.361V0.945312H235.361ZM238.361 87.4414H281.574V81.4414H238.361V87.4414ZM278.574 84.4414V107H284.574V84.4414H278.574ZM281.574 104H210.529V110H281.574V104Z" fill="#FF5238" mask="url(#path-1-inside-1_1600_7315)"/>
</svg>
