<svg width="171" height="213" viewBox="0 0 171 213" fill="none" xmlns="http://www.w3.org/2000/svg">
<mask id="path-1-inside-1_1845_6338" fill="white">
<path fill-rule="evenodd" clip-rule="evenodd" d="M30 0C13.4315 0 0 13.4315 0 30V183C0 199.569 13.4315 213 30 213H214.398C230.967 213 244.398 199.569 244.398 183V30C244.398 13.4315 230.967 0 214.398 0H30ZM151.9 92.0737C151.9 105.61 142.973 117.06 130.685 120.86V149.779H113.713V121.108C100.99 117.583 91.6494 105.919 91.6494 92.0737C91.6494 75.4359 105.137 61.9482 121.775 61.9482C138.413 61.9482 151.9 75.4359 151.9 92.0737Z"/>
</mask>
<path d="M130.685 120.86L129.799 117.994L127.685 118.647V120.86H130.685ZM130.685 149.779V152.779H133.685V149.779H130.685ZM113.713 149.779H110.713V152.779H113.713V149.779ZM113.713 121.108H116.713V118.827L114.514 118.217L113.713 121.108ZM3 30C3 15.0883 15.0883 3 30 3V-3C11.7746 -3 -3 11.7746 -3 30H3ZM3 183V30H-3V183H3ZM30 210C15.0883 210 3 197.912 3 183H-3C-3 201.225 11.7746 216 30 216V210ZM214.398 210H30V216H214.398V210ZM241.398 183C241.398 197.912 229.31 210 214.398 210V216C232.624 216 247.398 201.225 247.398 183H241.398ZM241.398 30V183H247.398V30H241.398ZM214.398 3C229.31 3 241.398 15.0883 241.398 30H247.398C247.398 11.7746 232.624 -3 214.398 -3V3ZM30 3H214.398V-3H30V3ZM131.571 123.726C145.08 119.549 154.9 106.962 154.9 92.0737H148.9C148.9 104.257 140.866 114.572 129.799 117.994L131.571 123.726ZM133.685 149.779V120.86H127.685V149.779H133.685ZM113.713 152.779H130.685V146.779H113.713V152.779ZM110.713 121.108V149.779H116.713V121.108H110.713ZM88.6494 92.0737C88.6494 107.302 98.9231 120.124 112.912 123.999L114.514 118.217C103.056 115.043 94.6494 104.536 94.6494 92.0737H88.6494ZM121.775 58.9482C103.48 58.9482 88.6494 73.779 88.6494 92.0737H94.6494C94.6494 77.0927 106.794 64.9482 121.775 64.9482V58.9482ZM154.9 92.0737C154.9 73.779 140.07 58.9482 121.775 58.9482V64.9482C136.756 64.9482 148.9 77.0927 148.9 92.0737H154.9Z" fill="#FF5238" mask="url(#path-1-inside-1_1845_6338)"/>
</svg>
