<svg width="164" height="334" viewBox="0 0 164 334" fill="none" xmlns="http://www.w3.org/2000/svg">
<path fill-rule="evenodd" clip-rule="evenodd" d="M44 0C3.68322 0 -29 32.6832 -29 73V123H7V73C7 52.5655 23.5655 36 44 36C64.4345 36 81 52.5655 81 73V180H116.321C116.769 176.731 117 173.392 117 170V73C117 32.6832 84.3168 0 44 0ZM56.1109 242H56V242.018C56.037 242.012 56.074 242.006 56.1109 242Z" fill="#FF5238"/>
<path fill-rule="evenodd" clip-rule="evenodd" d="M-51 121C-67.5685 121 -81 134.431 -81 151V304C-81 320.569 -67.5685 334 -51 334H133.398C149.967 334 163.398 320.569 163.398 304V151C163.398 134.431 149.967 121 133.398 121H-51ZM70.9004 213.074C70.9004 226.61 61.9732 238.06 49.6853 241.86V270.779H32.7132V242.108C19.9898 238.583 10.6494 226.919 10.6494 213.074C10.6494 196.436 24.1371 182.948 40.7749 182.948C57.4128 182.948 70.9004 196.436 70.9004 213.074Z" fill="#FF5238"/>
</svg>
