<svg width="171" height="390" viewBox="0 0 171 390" fill="none" xmlns="http://www.w3.org/2000/svg">
<mask id="path-1-inside-1_1845_6347" fill="white">
<path fill-rule="evenodd" clip-rule="evenodd" d="M125 0C84.6832 0 52 32.6832 52 73V123H88V73C88 52.5655 104.565 36 125 36C145.435 36 162 52.5655 162 73V180H197.321C197.769 176.731 198 173.392 198 170V73C198 32.6832 165.317 0 125 0ZM137.111 242H137V242.018C137.037 242.012 137.074 242.006 137.111 242Z"/>
</mask>
<path d="M52 123H49V126H52V123ZM88 123V126H91V123H88ZM162 180H159V183H162V180ZM197.321 180V183H199.938L200.293 180.407L197.321 180ZM137.111 242L137.604 244.959L137.111 239V242ZM137 242V239H134V242H137ZM137 242.018H134V245.556L137.49 244.978L137 242.018ZM55 73C55 34.3401 86.3401 3 125 3V-3C83.0264 -3 49 31.0264 49 73H55ZM55 123V73H49V123H55ZM88 120H52V126H88V120ZM85 73V123H91V73H85ZM125 33C102.909 33 85 50.9086 85 73H91C91 54.2223 106.222 39 125 39V33ZM165 73C165 50.9086 147.091 33 125 33V39C143.778 39 159 54.2223 159 73H165ZM165 180V73H159V180H165ZM162 183H197.321V177H162V183ZM195 170C195 173.256 194.778 176.458 194.348 179.593L200.293 180.407C200.759 177.003 201 173.529 201 170H195ZM195 73V170H201V73H195ZM125 3C163.66 3 195 34.3401 195 73H201C201 31.0264 166.974 -3 125 -3V3ZM137.111 239H137V245H137.111V239ZM140 242.018V242H134V242.018H140ZM136.617 239.041C136.581 239.047 136.546 239.053 136.51 239.059L137.49 244.978C137.528 244.972 137.567 244.965 137.604 244.959L136.617 239.041Z" fill="#FF5238" mask="url(#path-1-inside-1_1845_6347)"/>
<mask id="path-3-inside-2_1845_6347" fill="white">
<path fill-rule="evenodd" clip-rule="evenodd" d="M30 177C13.4315 177 0 190.431 0 207V360C0 376.569 13.4315 390 30 390H214.398C230.967 390 244.398 376.569 244.398 360V207C244.398 190.431 230.967 177 214.398 177H30ZM151.9 269.074C151.9 282.61 142.973 294.06 130.685 297.86V326.779H113.713V298.108C100.99 294.583 91.6494 282.919 91.6494 269.074C91.6494 252.436 105.137 238.948 121.775 238.948C138.413 238.948 151.9 252.436 151.9 269.074Z"/>
</mask>
<path d="M130.685 297.86L129.799 294.994L127.685 295.647V297.86H130.685ZM130.685 326.779V329.779H133.685V326.779H130.685ZM113.713 326.779H110.713V329.779H113.713V326.779ZM113.713 298.108H116.713V295.827L114.514 295.217L113.713 298.108ZM3 207C3 192.088 15.0883 180 30 180V174C11.7746 174 -3 188.775 -3 207H3ZM3 360V207H-3V360H3ZM30 387C15.0883 387 3 374.912 3 360H-3C-3 378.225 11.7746 393 30 393V387ZM214.398 387H30V393H214.398V387ZM241.398 360C241.398 374.912 229.31 387 214.398 387V393C232.624 393 247.398 378.225 247.398 360H241.398ZM241.398 207V360H247.398V207H241.398ZM214.398 180C229.31 180 241.398 192.088 241.398 207H247.398C247.398 188.775 232.624 174 214.398 174V180ZM30 180H214.398V174H30V180ZM131.571 300.726C145.08 296.549 154.9 283.962 154.9 269.074H148.9C148.9 281.257 140.866 291.572 129.799 294.994L131.571 300.726ZM133.685 326.779V297.86H127.685V326.779H133.685ZM113.713 329.779H130.685V323.779H113.713V329.779ZM110.713 298.108V326.779H116.713V298.108H110.713ZM88.6494 269.074C88.6494 284.302 98.9231 297.124 112.912 300.999L114.514 295.217C103.056 292.043 94.6494 281.536 94.6494 269.074H88.6494ZM121.775 235.948C103.48 235.948 88.6494 250.779 88.6494 269.074H94.6494C94.6494 254.093 106.794 241.948 121.775 241.948V235.948ZM154.9 269.074C154.9 250.779 140.07 235.948 121.775 235.948V241.948C136.756 241.948 148.9 254.093 148.9 269.074H154.9Z" fill="#FF5238" mask="url(#path-3-inside-2_1845_6347)"/>
</svg>
