<svg width="119" height="243" viewBox="0 0 119 243" fill="none" xmlns="http://www.w3.org/2000/svg">
<mask id="path-1-inside-1_1845_6346" fill="white">
<path fill-rule="evenodd" clip-rule="evenodd" d="M73 0C32.6832 0 0 32.6832 0 73V123H36V73C36 52.5655 52.5655 36 73 36C93.4345 36 110 52.5655 110 73V180H145.321C145.769 176.731 146 173.392 146 170V73C146 32.6832 113.317 0 73 0ZM85.1109 242H85V242.018C85.037 242.012 85.074 242.006 85.1109 242Z"/>
</mask>
<path fill-rule="evenodd" clip-rule="evenodd" d="M73 0C32.6832 0 0 32.6832 0 73V123H36V73C36 52.5655 52.5655 36 73 36C93.4345 36 110 52.5655 110 73V180H145.321C145.769 176.731 146 173.392 146 170V73C146 32.6832 113.317 0 73 0ZM85.1109 242H85V242.018C85.037 242.012 85.074 242.006 85.1109 242Z" fill="#FF5238"/>
<path d="M0 123H-3V126H0V123ZM36 123V126H39V123H36ZM110 180H107V183H110V180ZM145.321 180V183H147.938L148.293 180.407L145.321 180ZM85.1109 242L85.6044 244.959L85.1109 239V242ZM85 242V239H82V242H85ZM85 242.018H82V245.556L85.4897 244.978L85 242.018ZM3 73C3 34.3401 34.3401 3 73 3V-3C31.0264 -3 -3 31.0264 -3 73H3ZM3 123V73H-3V123H3ZM36 120H0V126H36V120ZM33 73V123H39V73H33ZM73 33C50.9086 33 33 50.9086 33 73H39C39 54.2223 54.2223 39 73 39V33ZM113 73C113 50.9086 95.0914 33 73 33V39C91.7777 39 107 54.2223 107 73H113ZM113 180V73H107V180H113ZM110 183H145.321V177H110V183ZM143 170C143 173.256 142.778 176.458 142.348 179.593L148.293 180.407C148.759 177.003 149 173.529 149 170H143ZM143 73V170H149V73H143ZM73 3C111.66 3 143 34.3401 143 73H149C149 31.0264 114.974 -3 73 -3V3ZM85.1109 239H85V245H85.1109V239ZM88 242.018V242H82V242.018H88ZM84.6174 239.041C84.5814 239.047 84.5457 239.053 84.5103 239.059L85.4897 244.978C85.5283 244.972 85.5666 244.965 85.6044 244.959L84.6174 239.041Z" fill="#FF5238" mask="url(#path-1-inside-1_1845_6346)"/>
</svg>
