<svg width="288" height="107" viewBox="0 0 288 107" fill="none" xmlns="http://www.w3.org/2000/svg">
<mask id="path-1-inside-1_1600_7316" fill="white">
<path d="M0.101562 23.5039V0.945312H91.5078V23.5039H59.5742V107H32.0352V23.5039H0.101562ZM102.787 107V0.945312H130.619V42.6934H169.73V0.945312H197.709V107H169.73V65.252H130.619V107H102.787ZM211.918 107V0.945312H287.65V23.5039H239.75V42.6934H283.695V65.252H239.75V84.4414H287.504V107H211.918Z"/>
</mask>
<path d="M0.101562 23.5039V0.945312H91.5078V23.5039H59.5742V107H32.0352V23.5039H0.101562ZM102.787 107V0.945312H130.619V42.6934H169.73V0.945312H197.709V107H169.73V65.252H130.619V107H102.787ZM211.918 107V0.945312H287.65V23.5039H239.75V42.6934H283.695V65.252H239.75V84.4414H287.504V107H211.918Z" fill="#FF5238"/>
<path d="M0.101562 23.5039H-2.89844V26.5039H0.101562V23.5039ZM0.101562 0.945312V-2.05469H-2.89844V0.945312H0.101562ZM91.5078 0.945312H94.5078V-2.05469H91.5078V0.945312ZM91.5078 23.5039V26.5039H94.5078V23.5039H91.5078ZM59.5742 23.5039V20.5039H56.5742V23.5039H59.5742ZM59.5742 107V110H62.5742V107H59.5742ZM32.0352 107H29.0352V110H32.0352V107ZM32.0352 23.5039H35.0352V20.5039H32.0352V23.5039ZM3.10156 23.5039V0.945312H-2.89844V23.5039H3.10156ZM0.101562 3.94531H91.5078V-2.05469H0.101562V3.94531ZM88.5078 0.945312V23.5039H94.5078V0.945312H88.5078ZM91.5078 20.5039H59.5742V26.5039H91.5078V20.5039ZM56.5742 23.5039V107H62.5742V23.5039H56.5742ZM59.5742 104H32.0352V110H59.5742V104ZM35.0352 107V23.5039H29.0352V107H35.0352ZM32.0352 20.5039H0.101562V26.5039H32.0352V20.5039ZM102.787 107H99.7871V110H102.787V107ZM102.787 0.945312V-2.05469H99.7871V0.945312H102.787ZM130.619 0.945312H133.619V-2.05469H130.619V0.945312ZM130.619 42.6934H127.619V45.6934H130.619V42.6934ZM169.73 42.6934V45.6934H172.73V42.6934H169.73ZM169.73 0.945312V-2.05469H166.73V0.945312H169.73ZM197.709 0.945312H200.709V-2.05469H197.709V0.945312ZM197.709 107V110H200.709V107H197.709ZM169.73 107H166.73V110H169.73V107ZM169.73 65.252H172.73V62.252H169.73V65.252ZM130.619 65.252V62.252H127.619V65.252H130.619ZM130.619 107V110H133.619V107H130.619ZM105.787 107V0.945312H99.7871V107H105.787ZM102.787 3.94531H130.619V-2.05469H102.787V3.94531ZM127.619 0.945312V42.6934H133.619V0.945312H127.619ZM130.619 45.6934H169.73V39.6934H130.619V45.6934ZM172.73 42.6934V0.945312H166.73V42.6934H172.73ZM169.73 3.94531H197.709V-2.05469H169.73V3.94531ZM194.709 0.945312V107H200.709V0.945312H194.709ZM197.709 104H169.73V110H197.709V104ZM172.73 107V65.252H166.73V107H172.73ZM169.73 62.252H130.619V68.252H169.73V62.252ZM127.619 65.252V107H133.619V65.252H127.619ZM130.619 104H102.787V110H130.619V104ZM211.918 107H208.918V110H211.918V107ZM211.918 0.945312V-2.05469H208.918V0.945312H211.918ZM287.65 0.945312H290.65V-2.05469H287.65V0.945312ZM287.65 23.5039V26.5039H290.65V23.5039H287.65ZM239.75 23.5039V20.5039H236.75V23.5039H239.75ZM239.75 42.6934H236.75V45.6934H239.75V42.6934ZM283.695 42.6934H286.695V39.6934H283.695V42.6934ZM283.695 65.252V68.252H286.695V65.252H283.695ZM239.75 65.252V62.252H236.75V65.252H239.75ZM239.75 84.4414H236.75V87.4414H239.75V84.4414ZM287.504 84.4414H290.504V81.4414H287.504V84.4414ZM287.504 107V110H290.504V107H287.504ZM214.918 107V0.945312H208.918V107H214.918ZM211.918 3.94531H287.65V-2.05469H211.918V3.94531ZM284.65 0.945312V23.5039H290.65V0.945312H284.65ZM287.65 20.5039H239.75V26.5039H287.65V20.5039ZM236.75 23.5039V42.6934H242.75V23.5039H236.75ZM239.75 45.6934H283.695V39.6934H239.75V45.6934ZM280.695 42.6934V65.252H286.695V42.6934H280.695ZM283.695 62.252H239.75V68.252H283.695V62.252ZM236.75 65.252V84.4414H242.75V65.252H236.75ZM239.75 87.4414H287.504V81.4414H239.75V87.4414ZM284.504 84.4414V107H290.504V84.4414H284.504ZM287.504 104H211.918V110H287.504V104Z" fill="#FF5238" mask="url(#path-1-inside-1_1600_7316)"/>
</svg>
